<?xml version="1.0" encoding="utf-8"?>
<!-- Generator: Adobe Illustrator 27.0.0, SVG Export Plug-In . SVG Version: 6.00 Build 0)  -->
<svg version="1.1" id="Layer_1" xmlns="http://www.w3.org/2000/svg" xmlns:xlink="http://www.w3.org/1999/xlink" x="0px" y="0px"
	 viewBox="0 0 1920 1080" style="enable-background:new 0 0 1920 1080;" xml:space="preserve">
<style type="text/css">
	.st0{fill:url(#SVGID_1_);}
	.st1{fill:url(#SVGID_00000029027868845629948500000000995011706417120954_);}
	.st2{fill:url(#SVGID_00000093169176785211496110000002491135048653388928_);}
	.st3{fill:url(#SVGID_00000017518326039856137140000006000385506405802631_);}
	.st4{fill:url(#SVGID_00000002375482982147926690000000738479520460068276_);}
	.st5{fill:url(#SVGID_00000027571181571535621060000010851271741861649074_);}
	.st6{fill:url(#SVGID_00000085970382930702247310000013679326366692180356_);}
	.st7{fill:url(#SVGID_00000001650485593669430660000014939772431400138924_);}
	.st8{fill:url(#SVGID_00000000930089459699398070000008050666871519884937_);}
	.st9{fill:url(#SVGID_00000137093973156384462820000010814654494480731044_);}
	.st10{fill:url(#SVGID_00000097458631345511979020000013428452016019147165_);}
	.st11{fill:url(#SVGID_00000139284979217954810000000007865849597981640588_);}
	.st12{fill:url(#SVGID_00000002365264876606144590000015829600041255438781_);}
	.st13{fill:url(#SVGID_00000142892182286251166910000018127049670902970538_);}
	.st14{fill:url(#SVGID_00000042008077712323058720000013332216140145699985_);}
	.st15{fill:#FF7537;}
	.st16{fill:#F70D52;}
	.st17{fill:url(#SVGID_00000018919579783946857280000006123602474162221962_);}
</style>
<g>
	<g>
		<linearGradient id="SVGID_1_" gradientUnits="userSpaceOnUse" x1="223.7679" y1="564.9912" x2="1699.932" y2="582.6346">
			<stop  offset="0" style="stop-color:#F70D52"/>
			<stop  offset="1" style="stop-color:#FF7537"/>
		</linearGradient>
		<path class="st0" d="M1016.25,637.52c-6.37-6.05-8.85-13.15-8.79-21.69c0.14-21.5,0.04-42.98,0.04-64.47h0.08
			c0-22.65,0.12-45.3-0.04-67.93c-0.08-10.94-5.48-14.89-15.62-11.37c-10.1,3.5-20.32,4.01-30.76,2.53
			c-13.5-1.92-26.94-4.14-40.67-3.6c-20.26,0.79-38.06,7.73-49.92,24.37c-22.97,32.24-25.63,67.82-11.53,104.03
			c8.51,21.9,31.77,31.1,54.71,25.16c11.37-2.94,19.47-10.14,27.15-18.27c1.36-1.43,2.62-3.94,4.99-2.9
			c2.25,0.97,1.56,3.61,1.56,5.61c0.03,15.25-0.04,30.51,0,45.75c0.01,4.14-0.22,8.3,0.86,12.4c2.72,10.36,10.44,13.19,18.58,6.29
			c7.19-6.11,15.33-10.23,24.16-13.16c7.01-2.32,14.21-4.1,21.18-6.51C1021.21,650.66,1023,643.95,1016.25,637.52z M947.35,564.58
			c-0.75,4.14-2.01,8.12-4.07,11.76c-2.61,4.62-6.11,8.11-12.01,7.93c-5.87-0.19-9.33-3.76-11.57-8.6
			c-3.44-7.43-4.83-15.4-5.18-23.54c-0.22-4.85-0.04-9.71-0.04-14.55c-0.43-10.65-0.35-21.29,2.85-31.58c0.87-2.85,2-5.69,3.53-8.25
			c5.54-9.25,16.08-9.19,21.79,0.04c2.46,3.97,3.92,8.4,4.65,12.98C950.13,528.7,950.57,546.65,947.35,564.58z"/>
		
			<linearGradient id="SVGID_00000125575596347528222760000014423802097276785841_" gradientUnits="userSpaceOnUse" x1="224.0954" y1="537.5856" x2="1700.2596" y2="555.229">
			<stop  offset="0" style="stop-color:#F70D52"/>
			<stop  offset="1" style="stop-color:#FF7537"/>
		</linearGradient>
		<path style="fill:url(#SVGID_00000125575596347528222760000014423802097276785841_);" d="M1199.03,537.83
			c0.81,17.77-1.2,35.6,1.35,53.33c0.95,6.58,3.22,12.5,7.61,17.53c3.45,3.95,5.29,8.39,2.75,13.34c-2.57,5.02-7.8,4.6-12.29,4.42
			c-6.68-0.27-13.32-1.42-19.99-1.98c-7.66-0.64-15.19,0.93-22.79,1.49c-11.25,0.84-15.46-2.79-17.78-13.72
			c-0.69-3.23,0.37-8.19-3.25-9.22c-3.48-0.99-5.46,3.58-7.89,5.89c-14.76,14.03-32.22,19.84-52.18,16.01
			c-18.92-3.63-29.81-18.53-30.44-40.82c-0.46-16.18-0.33-32.37-0.19-48.56c0.09-9.87-1.84-18.51-9.61-25.63
			c-6.06-5.55-4.05-12.58,3.79-15.74c8.8-3.54,18.43-4.31,27.18-8.23c6.6-2.96,12.81-6.32,18.42-10.89
			c9.32-7.59,18.16-4.24,19.66,7.7c0.92,7.32,0.84,14.77,1.21,22.15c1.07,21.47-1,43.01,1.51,64.44c0.43,3.7,1.4,7.22,2.81,10.68
			c2.66,6.55,7.6,8.67,14.36,8.41c6.43-0.25,9.39-4.16,11.44-9.42c1.79-4.58,2.24-9.42,2.73-14.24c1.29-12.69,0.89-25.41,0.47-38.11
			c-0.19-5.7-2.77-10.51-7.11-14.54c-9.01-8.39-7.28-15.17,4.54-19c8.56-2.77,17.57-3.97,25.85-7.84
			c6.12-2.87,12.07-5.9,17.04-10.51c3.75-3.48,8.01-4.92,12.71-2.98c4.8,1.98,6.27,6.57,6.87,11.29c1.59,12.66,1,25.4,1.2,38.11
			C1199.11,526.73,1199.03,532.28,1199.03,537.83z"/>
		
			<linearGradient id="SVGID_00000108989991848355078560000007837525378904912290_" gradientUnits="userSpaceOnUse" x1="224.239" y1="525.5737" x2="1700.4032" y2="543.217">
			<stop  offset="0" style="stop-color:#F70D52"/>
			<stop  offset="1" style="stop-color:#FF7537"/>
		</linearGradient>
		<path style="fill:url(#SVGID_00000108989991848355078560000007837525378904912290_);" d="M524.19,532.34
			c-0.33,14.91,1.33,31.39,7.19,47.21c3.34,9.02,7.87,17.23,16.56,22.38c12.9,7.66,29.63,3.87,37.89-8.68
			c4.24-6.45,6.55-13.74,9.07-20.94c1.9-5.46,3.71-10.97,6.95-15.83c5.82-8.75,14.74-12.12,24.71-9.43
			c8.18,2.21,14.33,10.03,15.05,19.65c1.28,16.93-7.35,29.27-19.54,39.36c-29.34,24.3-104,33.96-140.75-12.18
			c-15.23-19.12-21.45-41.19-21.41-65.19c0.08-41.61,23.29-76.45,59.74-89.93c15.72-5.82,32.15-6.83,48.56-4.66
			c11.86,1.57,23.49,1.19,35.16-0.58c7.74-1.17,12.12,1.87,14.63,9.19c4.49,13.11,10.55,25.69,13.45,39.32
			c1.18,5.56,3.22,12.13-3.25,15.63c-6.42,3.48-12.5,0.14-16.81-4.56c-6.39-6.96-11.74-14.85-17.83-22.09
			c-7.53-8.94-16.67-15.33-28.81-16.11c-14.58-0.94-24.1,6.47-30.28,18.9C525.58,491.68,523.94,510.93,524.19,532.34z"/>
		
			<linearGradient id="SVGID_00000096775916477576132650000006154520434259112068_" gradientUnits="userSpaceOnUse" x1="224.1199" y1="535.5332" x2="1700.2842" y2="553.1766">
			<stop  offset="0" style="stop-color:#F70D52"/>
			<stop  offset="1" style="stop-color:#FF7537"/>
		</linearGradient>
		<path style="fill:url(#SVGID_00000096775916477576132650000006154520434259112068_);" d="M1375.9,572.95
			c-5.29-2.93-10.72-2.22-15.57,1.58c-4.58,3.6-7.96,8.3-11.58,12.8c-9.57,11.86-22.07,17.2-37.19,16.09
			c-6.96-0.5-13.12-2.93-16.5-9.72c-3.61-7.29,0.18-14.21,8.29-15.02c2.99-0.31,6-0.32,9-0.51c14.69-0.94,28.72-4.33,41.98-10.91
			c32.85-16.32,36.73-59.49,7.07-81.11c-21.2-15.44-45.45-17.02-70.3-13.86c-23.36,2.96-41.53,14.44-53.88,34.8
			c-19.44,32.06-12.51,78.05,15.83,100.98c16.72,13.51,36.66,17.89,56.17,18.01c21.08-0.32,39.81-3.53,56.25-14.9
			c8.64-5.97,15.22-13.48,16.44-24.49C1382.55,580.95,1381.11,575.83,1375.9,572.95z M1293.93,499.97
			c2.62-5.37,6.26-9.68,13.11-9.58c6.54,0.1,10.22,4.22,12.36,9.5c6.65,16.51,6.72,33.24,0.01,49.77
			c-2.28,5.58-6.25,9.86-12.97,9.71c-6.69-0.14-10.19-4.71-12.72-10.15c-3.58-7.69-4.12-15.98-4.39-23.91
			C1289.49,516.33,1290.11,507.82,1293.93,499.97z"/>
		
			<linearGradient id="SVGID_00000099627612489931584160000013615630024176527763_" gradientUnits="userSpaceOnUse" x1="224.4136" y1="510.964" x2="1700.5778" y2="528.6074">
			<stop  offset="0" style="stop-color:#F70D52"/>
			<stop  offset="1" style="stop-color:#FF7537"/>
		</linearGradient>
		<path style="fill:url(#SVGID_00000099627612489931584160000013615630024176527763_);" d="M726.09,503.92
			c0,24.05-0.05,48.1,0.02,72.15c0.04,12.41,1.45,24.19,10.22,34.34c5.77,6.67,1.82,14.55-7.08,15.32
			c-5.5,0.47-11.18,0.59-16.61-0.24c-11.55-1.77-22.94-1.75-34.48,0.06c-4.96,0.78-10.15,0.19-15.23,0.18
			c-4.29-0.01-7.82-1.66-9.55-5.66c-1.73-4-0.58-7.82,2.36-10.87c7.07-7.33,9.23-16.49,9.34-26.12
			c0.44-37.45,0.62-74.91,0.84-112.36c0.06-9.52-1.88-18.05-9.61-24.95c-6.2-5.54-4.23-12.7,3.87-15.56
			c7.83-2.76,15.94-4.71,23.92-7.06c8.1-2.38,15.2-6.5,21.73-11.88c8.89-7.33,16.68-4.54,19.23,6.74c0.75,3.34,0.96,6.86,0.97,10.3
			c0.08,25.2,0.04,50.41,0.04,75.61C726.07,503.92,726.08,503.92,726.09,503.92z"/>
		
			<linearGradient id="SVGID_00000163757396580116692310000004919525268248358280_" gradientUnits="userSpaceOnUse" x1="224.0467" y1="541.6616" x2="1700.2109" y2="559.305">
			<stop  offset="0" style="stop-color:#F70D52"/>
			<stop  offset="1" style="stop-color:#FF7537"/>
		</linearGradient>
		<path style="fill:url(#SVGID_00000163757396580116692310000004919525268248358280_);" d="M824.33,539.3
			c0.92,15.28-1.46,33.78,1.25,52.19c0.93,6.35,3.11,12.01,7.43,16.82c3.08,3.43,5.28,7.36,3.16,11.95
			c-2.25,4.86-6.94,5.5-11.76,5.68c-13.63,0.49-27.1-3.48-40.76-1.41c-7.56,1.15-15.11,1.74-22.77,1.21
			c-4.25-0.3-7.96-1.58-9.5-5.68c-1.45-3.87-0.72-7.73,2.41-10.87c7.38-7.41,9.25-16.95,9.51-26.75
			c0.46-17.09,0.28-34.19,0.46-51.29c0.08-7.79-2.37-14.25-8.07-19.86c-7.82-7.68-5.96-14.41,4.51-17.88
			c8.98-2.97,18.47-4.23,27.11-8.38c5.65-2.72,11.11-5.58,15.93-9.67c9.56-8.1,17.96-4.99,20.17,7.46c0.6,3.39,0.86,6.88,0.88,10.32
			C824.38,507.49,824.33,521.81,824.33,539.3z"/>
		
			<linearGradient id="SVGID_00000168809205348567425990000008606414647085344688_" gradientUnits="userSpaceOnUse" x1="225.3331" y1="434.0287" x2="1701.4973" y2="451.6721">
			<stop  offset="0" style="stop-color:#F70D52"/>
			<stop  offset="1" style="stop-color:#FF7537"/>
		</linearGradient>
		<path style="fill:url(#SVGID_00000168809205348567425990000008606414647085344688_);" d="M749.58,451.9
			c-0.19-4.77,1.21-9.24,3.48-13.25c10.56-18.67,26.81-29.32,48.03-30.83c18.1-1.29,28.77,13.37,22.19,30.29
			c-7.44,19.13-22.8,29.63-42.28,34.39c-4.88,1.19-9.87,1.92-15.07,0.49C755.48,470.11,749.48,462.66,749.58,451.9z"/>
	</g>
	<g>
		
			<linearGradient id="SVGID_00000155147068804005962100000005057432377944796069_" gradientUnits="userSpaceOnUse" x1="1416.3444" y1="809.5829" x2="1242.851" y2="211.1777">
			<stop  offset="0" style="stop-color:#F70D52"/>
			<stop  offset="1" style="stop-color:#FF7537"/>
		</linearGradient>
		<path style="fill:url(#SVGID_00000155147068804005962100000005057432377944796069_);" d="M1393.17,664.99
			c-4.49-8.57-8.96-17.15-13.3-25.8c-1.36-2.71-2.9-2.79-5.54-1.68c-7.39,3.12-1.79,6.86-0.72,10.41c0.57,1.92,3.36,3.87,0,5.83
			c-2.39,1.37-4.75,1.82-7.04-0.14c-0.86-0.74-1.76-1.56-2.35-2.51c-3.78-6.14-8.05-5.65-13.04-0.79
			c3.82,3.54,5.72,8.98,10.87,11.11c2.72,1.12,2.1,2.44,1.21,4.15c-2.18,4.19-0.64,7.64,2.3,10.61c2.96,3,6.79,3.01,10.32,1.54
			c5.53-2.29,10.82-5.12,16.22-7.68C1394.78,668.78,1394.24,667.05,1393.17,664.99z M1382.16,665.27c-0.32,3.53-4.3,3.32-6.76,4.5
			c-2.87-0.36-4.5-1.99-4.08-4.6c0.6-3.71,3.9-5.4,6.96-5.51C1381.08,659.55,1382.34,663.23,1382.16,665.27z"/>
		
			<linearGradient id="SVGID_00000148653612321867844150000012997095198075179655_" gradientUnits="userSpaceOnUse" x1="1503.6528" y1="784.2699" x2="1330.1594" y2="185.8647">
			<stop  offset="0" style="stop-color:#F70D52"/>
			<stop  offset="1" style="stop-color:#FF7537"/>
		</linearGradient>
		<path style="fill:url(#SVGID_00000148653612321867844150000012997095198075179655_);" d="M1439.48,548.79
			c-10.65,0.1-17.95,8.07-17.9,19.54c0.06,10.72,8.25,18.11,20.18,18.18c10.8,0.06,18.57-8.41,18.33-19.98
			C1459.87,555.92,1451.47,548.68,1439.48,548.79z M1442.87,576.98c-7.86,0.31-14.34-4.24-14.25-9.97c0.08-5,4.46-8.68,10.46-8.79
			c7.53-0.12,13.71,4.18,13.87,9.66C1453.1,572.95,1448.9,576.76,1442.87,576.98z"/>
		
			<linearGradient id="SVGID_00000116940846106663502120000005119489425316660645_" gradientUnits="userSpaceOnUse" x1="1468.6088" y1="794.4301" x2="1295.1154" y2="196.0249">
			<stop  offset="0" style="stop-color:#F70D52"/>
			<stop  offset="1" style="stop-color:#FF7537"/>
		</linearGradient>
		<path style="fill:url(#SVGID_00000116940846106663502120000005119489425316660645_);" d="M1396.88,621.57
			c1.33-7.36,5.25-13.21,11.72-17.01c5.92-3.47,11.05-0.61,15.85,3.05c4.4,3.35,8.76,6.78,13.33,9.9c2.98,2.04,3.23,3.76,0.98,6.63
			c-2.08,2.67-3.69,3.64-6.67,1.24c-4.85-3.9-9.94-7.5-14.93-11.22c-3.44-2.56-6.78-2.93-9.68,0.75c-3.06,3.89-2.05,7.32,1.62,10.13
			c4.94,3.78,9.92,7.53,15,11.12c3,2.12,2.82,3.92,0.71,6.73c-2.16,2.88-3.81,3.28-6.65,0.99c-5.38-4.34-11.03-8.35-16.48-12.6
			C1398.61,628.88,1397.07,625.6,1396.88,621.57z"/>
		
			<linearGradient id="SVGID_00000024688621883813066020000004852795318203952019_" gradientUnits="userSpaceOnUse" x1="1516.0387" y1="780.6789" x2="1342.5453" y2="182.2737">
			<stop  offset="0" style="stop-color:#F70D52"/>
			<stop  offset="1" style="stop-color:#FF7537"/>
		</linearGradient>
		<path style="fill:url(#SVGID_00000024688621883813066020000004852795318203952019_);" d="M1449.15,488.69
			c8.16,10.07-3.54,13.28-6.55,19.59c3.37,2.05,6.97,1.41,10.2,2.33c1.32,0.38,3.18,0.35,3.84,1.23c1.65,2.2,3.21,5.17,2.1,7.66
			c-0.96,2.16-3.74,0.5-5.66,0.12c-9.58-1.89-19.04-5.98-28.91-0.98c-2.4,1.22-3.86-0.14-4.38-2.68c-0.44-2.11-2.48-5.36,0.7-5.84
			c13.36-2,19.04-13.64,27.92-21.23C1448.55,488.76,1448.82,488.77,1449.15,488.69z"/>
	</g>
	<g>
		
			<linearGradient id="SVGID_00000098922482345052233010000017659056118597710483_" gradientUnits="userSpaceOnUse" x1="1440.8123" y1="802.489" x2="1267.3188" y2="204.0838">
			<stop  offset="0" style="stop-color:#F70D52"/>
			<stop  offset="1" style="stop-color:#FF7537"/>
		</linearGradient>
		<path style="fill:url(#SVGID_00000098922482345052233010000017659056118597710483_);" d="M1337.91,424.83
			c0.61-5.44,1.36-10.87,1.76-16.33c0.24-3.25,0.82-5.27,4.88-4.59c3.5,0.59,5.33,1.5,4.73,5.68c-1.19,8.23-1.69,16.55-2.78,24.79
			c-0.31,2.37,1.02,6.4-3.34,6.36c-4.1-0.04-9.02,1.45-11.25-4.27c-2.41-6.19-5.15-12.25-8.26-19.58
			c-2.59,6.51-2.34,12.03-2.85,17.34c-0.4,4.18-2.57,3.99-5.61,3.88c-3.55-0.13-4.25-1.96-3.94-4.95c0.9-8.5,1.62-17.03,2.72-25.5
			c0.31-2.36-0.98-6.63,3.29-6.32c3.74,0.27,8.6-1.15,10.72,4.17c2.64,6.6,5.54,13.09,8.33,19.63
			C1336.84,425.03,1337.38,424.93,1337.91,424.83z"/>
		
			<linearGradient id="SVGID_00000111906282174456133650000017659790881654253955_" gradientUnits="userSpaceOnUse" x1="1485.1255" y1="789.6415" x2="1311.6321" y2="191.2363">
			<stop  offset="0" style="stop-color:#F70D52"/>
			<stop  offset="1" style="stop-color:#FF7537"/>
		</linearGradient>
		<path style="fill:url(#SVGID_00000111906282174456133650000017659790881654253955_);" d="M1399.12,428.12
			c-3.89-3.21-8.26-5.85-12.36-8.83c-2-1.44-3.51-1.74-5.08,0.67c-5.55,8.48-11.23,16.87-16.86,25.3c-0.81,1.21-1.5,2.69-0.01,3.65
			c6.89,4.46,12.98,10.5,19.83,11.16c9.35,0.17,16.41-5.21,19.55-13.3C1406.79,440.04,1405.09,433.04,1399.12,428.12z
			 M1387.26,451.04c-4,1.65-7.37-0.21-10.07-2.79c-3.03-2.9,0.72-4.86,1.81-7.05c1.11-2.25,2.54-4.43,4.21-6.32
			c1.75-1.99,2.19-6.6,6.35-4.62c3.9,1.85,6.57,5.08,6.35,9.86C1394.77,445.13,1392.13,449.02,1387.26,451.04z"/>
		
			<linearGradient id="SVGID_00000027565813531624598330000007406527569356339588_" gradientUnits="userSpaceOnUse" x1="1350.9735" y1="828.5356" x2="1177.4801" y2="230.1304">
			<stop  offset="0" style="stop-color:#F70D52"/>
			<stop  offset="1" style="stop-color:#FF7537"/>
		</linearGradient>
		<path style="fill:url(#SVGID_00000027565813531624598330000007406527569356339588_);" d="M1243.73,465.9
			c-2.13-0.29-2.86-1.52-3.68-2.63c-5.62-7.63-11.14-15.35-16.92-22.86c-2.18-2.83-1.28-4.38,1.19-6.14
			c5.09-3.62,10.09-7.35,15.07-11.13c2.1-1.59,3.79-2.35,5.78,0.31c1.95,2.61,0.97,4.1-1.25,5.64c-2.66,1.84-5.25,3.79-7.86,5.7
			c-1.84,1.34-3.06,2.71-1.32,5.13c1.71,2.37,3.31,2.8,5.67,0.87c2.32-1.91,4.93-3.45,7.26-5.34c2.21-1.79,3.48-1.09,5.02,0.98
			c1.61,2.17,1.52,3.68-0.75,5.09c-0.59,0.36-1.17,0.74-1.72,1.17c-7.96,6.1-7.96,6.11-2.54,14.87c0.82,1.32,2.49,2.66,1.02,4.25
			C1247.15,463.47,1245.18,464.73,1243.73,465.9z"/>
		
			<linearGradient id="SVGID_00000060747932579558905310000003507105210316932531_" gradientUnits="userSpaceOnUse" x1="1394.6893" y1="815.8613" x2="1221.1959" y2="217.4561">
			<stop  offset="0" style="stop-color:#F70D52"/>
			<stop  offset="1" style="stop-color:#FF7537"/>
		</linearGradient>
		<path style="fill:url(#SVGID_00000060747932579558905310000003507105210316932531_);" d="M1277.98,406.85
			c2.78-0.76,3.44,1.01,3.97,2.85c2.77,9.47,5.45,18.98,8.32,28.42c0.97,3.2-0.78,4-3.22,4.75c-2.61,0.8-5.05,1.47-6.09-2.04
			c-2.86-9.69-5.82-19.35-8.45-29.11C1271.18,406.77,1276.07,408.17,1277.98,406.85z"/>
	</g>
</g>
</svg>


<?xml version="1.0" encoding="UTF-8" standalone="no"?>
<svg width="500" height="200" viewBox="0 0 500 200" xmlns="http://www.w3.org/2000/svg">
  <defs>
    <linearGradient id="textGradient" x1="0%" y1="0%" x2="100%" y2="0%">
      <stop offset="0%" style="stop-color:#ff7f50; stop-opacity:1" />
      <stop offset="100%" style="stop-color:#ff1493; stop-opacity:1" />
    </linearGradient>
  </defs>
  
  <text x="50" y="100" font-size="80" font-family="Arial" fill="url(#textGradient)">
    Clique
  </text>
</svg>
