<svg width="28" height="28" viewBox="0 0 28 28" fill="none" xmlns="http://www.w3.org/2000/svg">
<path d="M18.4453 10.6666V7.3333C18.4453 4.8787 16.4554 2.88885 14.0008 2.88885C11.5462 2.88885 9.5564 4.8787 9.5564 7.3333V10.6666M4.65863 12.1688L3.99196 19.2799C3.80241 21.3018 3.70763 22.3128 4.04312 23.0936C4.33784 23.7796 4.85431 24.3467 5.50975 24.7042C6.25587 25.1111 7.27125 25.1111 9.30201 25.1111H18.6997C20.7304 25.1111 21.7458 25.1111 22.4919 24.7042C23.1474 24.3467 23.6638 23.7796 23.9586 23.0936C24.2941 22.3128 24.1993 21.3018 24.0097 19.2799L23.3431 12.1688C23.183 10.4615 23.103 9.60779 22.719 8.96237C22.3808 8.39395 21.8812 7.93898 21.2837 7.65535C20.6053 7.3333 19.7479 7.3333 18.033 7.3333L9.96868 7.3333C8.25383 7.3333 7.39641 7.3333 6.71798 7.65535C6.12047 7.93898 5.62085 8.39395 5.28269 8.96237C4.89872 9.60778 4.81869 10.4615 4.65863 12.1688Z" stroke="url(#paint0_linear_1_532)" stroke-width="2" stroke-linecap="round" stroke-linejoin="round"/>
<defs>
<linearGradient id="paint0_linear_1_532" x1="24.1814" y1="14" x2="3.82031" y2="14" gradientUnits="userSpaceOnUse">
<stop stop-color="#FE7736"/>
<stop offset="1" stop-color="#F50E50"/>
</linearGradient>
</defs>
</svg>
