<?xml version="1.0" standalone="no"?>
<!DOCTYPE svg PUBLIC "-//W3C//DTD SVG 20010904//EN"
 "http://www.w3.org/TR/2001/REC-SVG-20010904/DTD/svg10.dtd">
<svg version="1.0" xmlns="http://www.w3.org/2000/svg"
 width="8000.000000pt" height="4500.000000pt" viewBox="0 0 8000.000000 4500.000000"
 preserveAspectRatio="xMidYMid meet">

<g transform="translate(0.000000,4500.000000) scale(0.100000,-0.100000)"
fill="#000000" stroke="none">
<path d="M54821 28267 c-52 -13 -62 -42 -72 -200 -4 -78 -15 -198 -23 -267
-30 -246 -87 -836 -87 -899 0 -114 49 -151 199 -151 178 0 181 6 212 404 6 76
17 172 25 215 18 92 65 251 75 251 8 0 171 -371 285 -650 87 -213 94 -227 137
-267 63 -61 94 -68 276 -66 109 1 171 6 190 15 43 20 62 71 62 163 0 44 5 114
10 155 6 41 26 228 45 415 19 188 42 392 50 455 19 146 19 194 -2 237 -23 50
-99 83 -202 90 -144 10 -162 -17 -186 -274 -24 -250 -65 -587 -73 -595 -4 -3
-20 -8 -36 -10 -28 -3 -29 -1 -132 237 -58 132 -139 323 -181 425 -99 242
-122 274 -213 304 -51 17 -309 26 -359 13z"/>
<path d="M53220 28034 c-19 -7 -61 -18 -93 -24 -80 -16 -110 -44 -110 -101 0
-24 26 -136 58 -249 95 -339 304 -1040 319 -1068 39 -75 104 -85 243 -38 94
31 133 66 133 120 0 17 -23 108 -50 201 -28 94 -111 378 -185 633 -74 254
-142 476 -150 492 -8 16 -24 34 -34 40 -26 14 -88 11 -131 -6z"/>
<path d="M29670 28012 c-90 -30 -167 -76 -303 -182 -154 -120 -257 -189 -401
-269 -208 -115 -313 -152 -949 -330 -284 -80 -518 -156 -588 -191 -83 -42
-150 -101 -188 -165 -30 -50 -35 -67 -39 -140 -7 -124 22 -180 173 -335 208
-215 299 -393 353 -690 15 -86 17 -180 15 -955 -4 -1415 -23 -3813 -33 -4065
-10 -265 -30 -397 -84 -563 -62 -189 -152 -342 -293 -500 -107 -119 -152 -231
-139 -342 20 -172 134 -303 294 -338 89 -20 563 -32 687 -18 50 6 162 20 250
31 353 45 774 45 1125 -1 85 -11 193 -25 240 -31 108 -13 594 -5 670 12 134
30 250 113 300 215 21 42 25 65 25 140 0 80 -3 97 -31 155 -17 36 -57 97 -89
135 -217 261 -336 554 -392 966 -15 114 -17 404 -23 3489 -5 2473 -10 3382
-18 3428 -54 295 -140 454 -287 530 -67 34 -194 41 -275 14z"/>
<path d="M33335 28004 c-358 -38 -615 -109 -890 -244 -401 -197 -698 -466
-967 -874 -126 -192 -200 -356 -229 -509 -16 -81 -15 -302 1 -397 67 -400 403
-682 851 -716 256 -20 749 110 1112 293 285 143 558 358 740 583 138 171 292
444 361 638 62 175 83 394 52 554 -64 333 -315 581 -661 653 -78 17 -290 27
-370 19z"/>
<path d="M57611 27543 c-38 -36 -748 -1102 -769 -1154 -14 -37 -14 -41 4 -64
24 -31 444 -330 541 -386 41 -23 113 -56 161 -73 79 -28 97 -31 197 -29 281 4
515 135 672 375 90 139 133 275 133 428 0 156 -41 274 -140 402 -73 94 -162
164 -589 457 -122 83 -159 91 -210 44z m314 -482 c73 -39 167 -131 198 -195
38 -76 50 -171 31 -244 -20 -79 -85 -208 -134 -264 -53 -61 -170 -139 -243
-162 -120 -38 -253 -1 -367 101 -96 86 -100 131 -22 229 26 32 68 94 92 138
25 43 75 118 112 166 37 49 77 108 89 132 68 136 128 160 244 99z"/>
<path d="M51710 27408 c-25 -13 -135 -91 -245 -174 -110 -82 -264 -196 -342
-252 -187 -135 -211 -164 -203 -237 4 -34 27 -71 154 -238 67 -89 234 -315
371 -502 136 -187 257 -350 268 -362 11 -12 39 -30 63 -39 l42 -16 79 60 c95
72 153 134 153 165 0 12 -29 67 -66 122 -36 55 -85 140 -110 189 -88 176 -58
232 239 446 112 81 132 106 123 153 -8 43 -60 123 -99 151 -16 12 -41 20 -62
19 -35 -1 -52 -13 -342 -225 -113 -83 -154 -98 -204 -77 -41 16 -106 100 -115
146 -14 73 17 102 354 343 137 98 156 120 150 182 -4 34 -14 60 -35 85 -63 79
-108 94 -173 61z"/>
<path d="M22790 26950 c-1224 -72 -2287 -671 -2944 -1660 -125 -188 -186 -294
-275 -482 -346 -723 -476 -1568 -375 -2438 56 -488 184 -941 380 -1349 602
-1250 1662 -1958 3149 -2103 172 -17 701 -17 880 0 933 88 1754 380 2305 823
128 102 334 305 420 414 219 276 342 547 391 860 20 128 15 391 -9 507 -37
176 -113 323 -231 450 -164 175 -342 254 -601 265 -446 19 -762 -231 -979
-775 -22 -54 -81 -217 -131 -363 -153 -439 -239 -634 -356 -810 -181 -270
-436 -444 -749 -511 -119 -25 -327 -27 -449 -4 -380 72 -705 329 -919 726
-199 370 -359 939 -421 1505 -49 444 -49 1282 0 1785 79 817 333 1518 684
1894 301 321 755 439 1239 320 346 -85 659 -301 956 -657 47 -57 186 -233 308
-390 262 -336 418 -519 507 -594 36 -30 107 -75 157 -100 88 -44 97 -46 195
-51 87 -3 113 -1 168 18 119 40 201 107 244 199 18 39 21 64 20 171 0 107 -6
148 -37 285 -81 351 -151 568 -365 1125 -77 201 -159 419 -182 485 -93 265
-187 381 -349 429 -69 20 -218 21 -349 1 -436 -65 -926 -70 -1382 -15 -336 41
-646 55 -900 40z"/>
<path d="M33795 25369 c-68 -14 -197 -78 -270 -134 -268 -207 -354 -262 -605
-389 -257 -130 -386 -175 -851 -296 -146 -38 -314 -85 -373 -104 -264 -87
-394 -203 -404 -362 -8 -121 45 -227 188 -379 152 -162 221 -267 276 -421 67
-186 65 -167 64 -1114 -2 -1564 -15 -1786 -120 -2085 -61 -173 -129 -285 -267
-441 -104 -120 -144 -196 -151 -294 -6 -82 10 -156 51 -233 34 -65 67 -96 140
-133 93 -48 168 -57 457 -58 268 -1 390 8 660 45 320 45 534 42 1066 -13 262
-27 349 -32 574 -32 220 0 277 3 334 17 130 33 214 97 273 209 25 48 28 63 28
154 0 96 -2 103 -37 175 -21 40 -70 112 -109 159 -206 245 -287 442 -333 805
-37 290 -38 349 -42 2261 -2 1273 -7 1927 -14 2000 -36 358 -133 562 -305 640
-59 27 -159 37 -230 23z"/>
<path d="M38285 25370 c-746 -44 -1321 -278 -1759 -716 -123 -124 -201 -220
-325 -404 -293 -435 -505 -893 -626 -1353 -95 -362 -125 -587 -132 -987 -6
-345 7 -529 57 -827 85 -503 276 -1089 442 -1352 280 -445 731 -729 1277 -805
140 -20 429 -21 571 -2 392 53 685 178 1005 430 55 43 198 177 317 297 236
237 239 240 308 204 64 -33 60 43 60 -1262 0 -987 3 -1204 15 -1283 37 -244
141 -421 289 -491 50 -24 74 -29 137 -29 139 0 220 36 401 181 279 223 574
382 931 505 72 24 247 79 387 120 604 179 675 207 776 308 74 74 98 135 92
229 -6 100 -48 175 -168 303 -165 175 -249 309 -304 483 -59 188 -56 -5 -59
3176 -2 2726 -4 2924 -20 2983 -52 189 -156 287 -319 299 -91 7 -174 -7 -320
-53 -271 -84 -476 -121 -738 -131 -201 -7 -353 5 -713 57 -761 109 -1203 143
-1582 120z m640 -834 c194 -51 347 -214 455 -482 78 -196 129 -494 172 -1009
16 -191 16 -798 0 -975 -19 -212 -51 -453 -79 -595 -111 -576 -395 -884 -748
-812 -227 47 -363 199 -480 536 -38 112 -77 257 -95 360 -37 208 -41 283 -50
861 -9 602 -4 833 26 1058 43 330 153 661 280 839 129 181 336 268 519 219z"/>
<path d="M49377 25370 c-70 -12 -183 -70 -252 -129 -218 -185 -318 -251 -576
-381 -289 -146 -387 -181 -831 -296 -499 -128 -623 -178 -740 -294 -53 -53
-69 -77 -82 -120 -21 -71 -20 -108 5 -182 30 -90 79 -159 203 -288 175 -180
243 -289 286 -455 27 -101 39 -379 39 -905 1 -665 -45 -1153 -130 -1398 -73
-206 -168 -334 -291 -392 -79 -37 -146 -50 -257 -50 -184 1 -327 55 -429 165
-125 134 -211 389 -246 730 -36 356 -40 468 -41 1430 -1 895 -7 1145 -36 1730
-22 438 -60 594 -180 720 -72 76 -140 108 -244 113 -143 8 -256 -39 -447 -186
-208 -159 -419 -285 -675 -402 -185 -84 -321 -128 -664 -215 -167 -42 -351
-93 -409 -112 -221 -73 -333 -150 -392 -271 -29 -58 -33 -76 -32 -142 0 -110
30 -164 168 -309 163 -172 236 -289 301 -484 71 -215 69 -177 71 -1322 3
-1328 12 -1517 84 -1800 79 -312 209 -552 410 -755 292 -296 665 -434 1210
-447 316 -8 544 26 820 122 333 116 747 384 952 617 186 210 202 223 280 216
55 -6 101 -40 124 -95 8 -18 19 -87 24 -155 23 -265 103 -475 224 -586 57 -53
127 -86 225 -108 101 -23 346 -14 641 22 347 42 552 40 965 -11 281 -34 347
-39 545 -39 l225 -1 62 29 c75 34 134 95 171 174 24 51 27 69 27 168 0 107 -1
112 -38 187 -21 42 -75 123 -121 180 -218 273 -290 477 -343 972 -15 137 -17
279 -19 995 -1 1269 -14 2695 -25 2885 -12 212 -35 420 -56 505 -33 137 -104
249 -193 305 -87 55 -217 82 -313 65z"/>
<path d="M54190 25360 c-658 -56 -1040 -151 -1455 -363 -775 -397 -1358 -1173
-1559 -2077 -102 -462 -106 -982 -10 -1458 143 -708 505 -1343 1003 -1758 550
-460 1215 -712 2044 -775 196 -15 689 -6 903 15 325 33 569 77 815 147 693
195 1286 598 1512 1027 148 281 180 618 76 812 -59 110 -168 197 -301 241 -98
32 -244 32 -333 0 -162 -58 -335 -211 -568 -501 -196 -243 -238 -291 -347
-387 -249 -221 -530 -355 -870 -415 -103 -18 -481 -17 -580 1 -103 18 -228 62
-297 102 -32 19 -91 68 -133 109 -213 211 -249 506 -83 677 105 106 185 128
533 148 146 8 326 22 400 31 734 84 1463 348 1881 681 514 410 794 1068 729
1714 -23 227 -85 442 -190 654 -219 447 -562 767 -1105 1035 -271 133 -493
210 -784 271 -288 59 -411 71 -811 74 -201 2 -412 -1 -470 -5z m445 -820 c165
-62 266 -176 355 -400 238 -599 259 -1233 59 -1846 -80 -248 -147 -373 -250
-468 -156 -145 -398 -178 -591 -80 -182 92 -342 367 -422 725 -44 201 -60 376
-60 674 1 367 28 582 104 820 109 337 272 535 486 590 85 21 241 14 319 -15z"/>
<path d="M60280 24564 c-38 -36 -150 -154 -249 -262 -99 -109 -209 -223 -245
-254 -170 -152 -333 -241 -522 -288 -64 -16 -122 -34 -130 -41 -22 -18 -17
-85 15 -185 36 -115 45 -130 82 -150 36 -18 72 -12 141 22 148 75 385 102 598
70 111 -17 475 -99 626 -141 128 -36 154 -33 179 16 27 51 19 136 -19 214 -54
110 -69 124 -161 145 -44 11 -136 27 -205 35 -69 9 -143 21 -165 26 -49 13
-115 46 -115 58 0 20 74 106 195 226 183 182 220 265 178 400 -26 80 -87 175
-113 175 -11 0 -51 -30 -90 -66z"/>
<path d="M59820 22115 c-251 -53 -436 -214 -526 -455 -44 -117 -57 -212 -52
-371 4 -113 9 -147 33 -218 96 -283 360 -471 704 -500 350 -31 625 114 766
404 63 129 76 187 82 357 7 179 -8 259 -72 386 -94 187 -270 322 -500 383
-104 27 -339 35 -435 14z m315 -390 c93 -20 218 -81 281 -138 28 -25 66 -74
85 -109 32 -59 34 -69 34 -153 0 -74 -5 -99 -24 -137 -72 -147 -224 -228 -426
-228 -181 1 -329 54 -440 160 -82 79 -119 157 -118 250 1 166 119 305 304 354
71 19 216 19 304 1z"/>
<path d="M58785 19851 c-63 -23 -86 -34 -158 -83 -78 -53 -177 -147 -233 -222
-98 -130 -184 -347 -184 -465 0 -108 48 -232 121 -315 22 -25 183 -154 357
-286 174 -132 352 -267 394 -300 97 -74 135 -83 198 -48 31 17 60 48 95 97 45
65 50 78 50 126 0 69 -12 82 -220 232 -254 184 -486 362 -539 412 -94 89 -119
195 -71 298 30 66 108 150 160 174 57 26 138 24 200 -5 50 -23 419 -290 632
-457 62 -49 126 -95 142 -104 41 -21 97 -19 137 6 42 26 120 129 135 179 23
77 -4 115 -167 231 -64 45 -204 149 -312 232 -293 223 -387 282 -494 307 -69
16 -187 11 -243 -9z"/>
<path d="M57289 18445 c-68 -25 -116 -54 -147 -90 -45 -50 -43 -99 5 -185 82
-147 153 -297 153 -324 0 -39 -54 -89 -125 -115 -65 -25 -122 -27 -170 -7 -44
19 -128 97 -168 156 -138 207 -284 229 -480 75 l-58 -46 33 -37 c18 -20 75
-92 126 -159 112 -147 191 -222 277 -263 59 -28 105 -69 105 -93 0 -5 -16 -45
-36 -89 -45 -100 -54 -174 -29 -249 37 -112 130 -219 233 -267 49 -23 70 -26
142 -26 120 2 211 38 680 272 223 111 236 119 246 152 17 51 5 81 -154 385
-78 149 -211 404 -295 569 -83 164 -165 312 -180 327 -24 24 -37 29 -75 28
-26 0 -63 -6 -83 -14z m178 -936 c66 -25 113 -101 120 -194 7 -104 -32 -144
-195 -194 -98 -31 -115 -30 -181 3 -46 24 -71 71 -71 134 0 65 17 108 65 160
41 46 101 78 166 91 62 12 64 12 96 0z"/>
</g>
</svg>
