<?xml version="1.0" encoding="utf-8"?>
<!-- Generator: Adobe Illustrator 27.0.0, SVG Export Plug-In . SVG Version: 6.00 Build 0)  -->
<svg version="1.1" id="Layer_1" xmlns="http://www.w3.org/2000/svg" xmlns:xlink="http://www.w3.org/1999/xlink" x="0px" y="0px"
	 viewBox="0 0 1000 1000" style="enable-background:new 0 0 1000 1000;" xml:space="preserve">
<style type="text/css">
	.st0{fill:#FFFFFF;}
</style>
<g>
	<path class="st0" d="M543.82,509.49c0,19.26,0.1,38.52-0.05,57.77c-0.06,8.15,2.01,15.04,8.2,20.86
		c5.89,5.53,4.25,11.57-3.52,14.36c-4.33,1.55-8.87,2.5-13.25,3.89c-10.22,3.24-20.09,7.05-28.44,14.23
		c-7.03,6.05-14.24,3.47-16.48-5.59c-0.75-3.01-0.98-6.21-1-9.32c-0.11-12.98,0.02-25.96-0.11-38.93c-0.03-3.22,1.75-7.91-1.28-9.3
		c-3.36-1.55-5.25,3.17-7.4,5.42c-10.56,11.04-23.26,15.99-38.53,14.33c-13.94-1.51-24.48-8.27-31.32-20.44
		c-15.15-26.99-10.09-75.94,10.11-99.27c12.01-13.87,27.52-20,45.57-20.52c12.45-0.35,24.64,1.93,36.89,3.55
		c8.88,1.17,17.52,0.49,26.07-2.33c9.79-3.23,14.53,0.11,14.6,10.37c0.13,20.3,0.04,40.61,0.04,60.91
		C543.89,509.49,543.86,509.49,543.82,509.49z M491.37,498.22c-0.26-5.45-0.33-10.27-0.77-15.05c-0.67-7.3-1.49-14.63-5.24-21.15
		c-5.24-9.12-15.16-9.16-20.41-0.13c-0.94,1.62-1.9,3.33-2.33,5.12c-4.98,20.47-5.11,40.97,0.26,61.37
		c1.55,5.9,4.72,10.9,11.8,11.29c5.76,0.32,9.76-3.21,12.68-11.11C491.06,518.53,490.99,508.02,491.37,498.22z"/>
	<path class="st0" d="M717.35,497.53c0.76,15.67-0.76,31.38,1.15,47.03c0.8,6.61,2.99,12.58,7.41,17.65
		c2.99,3.42,4.26,7.28,2.27,11.57c-1.94,4.17-6.11,3.85-9.82,4.21c-1.24,0.12-2.53,0.03-3.76-0.19
		c-11.87-2.11-23.69-2.09-35.66-0.47c-10.71,1.44-14.85-2.1-16.88-12.77c-0.04-0.21-0.04-0.43-0.12-0.61
		c-1.07-2.4,0.18-6.28-2.82-7.16c-2.91-0.86-4.52,2.51-6.35,4.37c-12.44,12.72-27.66,17.77-45.13,15.97
		c-18.16-1.87-29.94-16.26-30.62-37.63c-0.47-14.64-0.3-29.3-0.17-43.95c0.08-8.94-1.69-16.76-8.73-23.2
		c-5.3-4.85-3.73-11.27,2.92-13.94c4.06-1.63,8.39-2.61,12.65-3.7c10.67-2.74,20.63-6.83,29.25-13.92
		c8.41-6.91,16.38-3.82,17.84,6.96c0.73,5.37,0.87,10.85,0.95,16.29c0.23,16.53,0.3,33.06,0.44,49.6c0.06,6.72,0.63,13.4,2.67,19.83
		c2.4,7.55,5.92,9.88,13.26,9.96c7.13,0.08,10.22-4.48,11.59-10.27c3.75-15.86,3.04-31.98,1.94-48.06
		c-0.29-4.29-2.81-7.7-6.01-10.69c-8.13-7.61-6.62-13.78,4.07-17.22c7.97-2.56,16.35-3.7,24.01-7.36c5.13-2.45,10.2-4.96,14.4-8.84
		c3.49-3.22,7.34-5.14,11.97-3.17c4.6,1.96,5.94,6.28,6.32,10.8c0.49,5.83,0.82,11.68,0.89,17.53
		C717.45,476.6,717.35,487.07,717.35,497.53z"/>
	<path class="st0" d="M105.65,492.76c-0.27,13.48,1.25,28.39,6.57,42.72c2.96,7.96,6.98,15.22,14.52,19.91
		c11.57,7.19,26.8,4.03,34.49-7.18c3.6-5.25,5.6-11.2,7.7-17.13c2.17-6.11,4.07-12.33,7.9-17.71c5.13-7.2,12.23-9.24,20.49-7.55
		c7.8,1.59,12.25,6.94,14.16,14.39c2.4,9.34-0.17,17.88-5.09,25.75c-7.39,11.83-18.25,19.59-31.11,24.38
		c-20.69,7.72-42.12,9.59-63.72,5.1c-34.7-7.22-60.16-36.91-63.52-72.34c-2.25-23.73,1.27-45.98,15.34-65.68
		c18.59-26.01,44.72-36.35,75.96-34.19c12.99,0.9,25.83,2.36,38.79-0.07c6.01-1.13,9.98,1.35,12.1,7.27
		c4.37,12.21,9.96,24.01,12.68,36.76c1.07,5.03,2.95,10.98-2.93,14.14c-5.82,3.13-11.36,0.14-15.28-4.12
		c-5.8-6.29-10.75-13.36-16.17-20.01c-5-6.12-11.1-10.93-18.7-13.27c-14.9-4.57-27.72,1.29-34.86,15.79
		C106.99,455.93,105.39,473.35,105.65,492.76z"/>
	<path class="st0" d="M815.78,577.6c-18.25-0.46-37.7-5.11-53.44-19.88c-22.04-20.68-26.67-60.33-10.38-87.68
		c13.38-22.46,34.22-31.99,59.34-32.87c19.08-0.67,37.71,1.8,53.72,13.86c26.2,19.74,23.14,57.73-5.92,72.87
		c-12.29,6.4-25.46,9.49-39.22,10.32c-2.72,0.16-5.46,0.15-8.16,0.47c-6.79,0.8-10.09,6.44-7.48,12.75
		c2.76,6.67,8.5,9.07,15.05,9.57c13.43,1.04,24.69-3.5,33.38-13.94c3.34-4.01,6.37-8.31,10.4-11.72c4.45-3.77,9.54-4.74,14.59-2.01
		c5.22,2.83,6.4,7.9,5.52,13.56c-1.46,9.38-7.15,15.89-14.59,21.05C853.51,574.4,836.31,577.3,815.78,577.6z M799.34,485.82
		c0.21,7.49,0.72,15.24,4.11,22.41c2.34,4.95,5.68,8.98,11.79,8.91c5.79-0.07,9.32-3.79,11.32-8.63c6.17-15.01,6.03-30.2,0.03-45.21
		c-1.93-4.84-5.41-8.62-11.26-8.67c-6.12-0.05-9.47,3.95-11.86,8.87C800.09,470.43,799.54,477.96,799.34,485.82z"/>
	<path class="st0" d="M288.68,466.47c0.01,21.56-0.02,43.12,0.02,64.68c0.02,11.64,1.09,22.75,9.36,32.33
		c5.22,6.05,1.51,13.1-6.64,13.75c-4.99,0.4-10.14,0.53-15.06-0.24c-10.48-1.64-20.82-1.56-31.28,0.11
		c-3.89,0.62-7.95,0.26-11.93,0.24c-4.36-0.02-8.58-0.69-10.46-5.33c-1.72-4.24,0.24-7.68,3.06-10.81c6.48-7.2,7.64-16.11,7.7-25.21
		c0.16-21.98,0.16-43.96,0.13-65.93c-0.02-12.96,1.16-25.91,0.14-38.89c-0.49-6.2-2.76-11.14-7.17-15.5
		c-6.91-6.83-5.51-12.83,3.7-15.91c6.54-2.19,13.29-3.77,19.91-5.74c7.52-2.24,14.18-5.98,20.26-11.03
		c7.8-6.47,14.71-3.99,17.33,5.72c0.89,3.3,0.9,6.62,0.9,9.97C288.67,421.26,288.67,443.86,288.68,466.47z"/>
	<path class="st0" d="M377.76,499.23c0.84,13.79-1.37,30.55,1.16,47.21c0.84,5.52,2.73,10.47,6.45,14.69
		c2.87,3.26,5.21,6.89,3.01,11.33c-2.16,4.37-6.45,4.8-10.78,4.95c-12.15,0.44-24.15-3.11-36.34-1.31
		c-7.06,1.04-14.12,1.68-21.27,1.11c-3.6-0.28-6.78-1.38-8.23-4.76c-1.49-3.47-1.02-7.01,1.78-9.88c6.92-7.1,8.7-16.07,8.91-25.41
		c0.33-14.85,0.17-29.7,0.41-44.55c0.12-7.74-2.24-14.1-7.95-19.64c-6.3-6.11-4.57-12.21,3.71-15.24
		c7.48-2.73,15.51-3.53,22.87-6.77c6.56-2.89,12.73-6.18,18.29-10.81c7.26-6.05,14.86-3.24,16.8,6.05c0.77,3.65,1.08,7.46,1.11,11.2
		C377.84,470.38,377.76,483.35,377.76,499.23z"/>
	<path class="st0" d="M357.88,379.75c15.54,0.17,24.68,12.73,19.03,27.45c-6.66,17.34-20.55,26.79-38.09,31.29
		c-3.2,0.82-6.64,1.32-9.92,1.12c-13.97-0.84-21.88-12.47-17.97-26.04C316.05,395.8,338.61,379.55,357.88,379.75z"/>
	<path class="st0" d="M843.18,396.33c0.76-6.76,1.48-11.67,1.8-16.6c0.21-3.18,1.66-3.84,4.49-3.39c2.59,0.41,4.94,0.42,4.41,4.31
		c-1.07,7.86-1.62,15.8-2.64,23.67c-0.28,2.12,0.9,5.78-3.19,5.55c-3.7-0.21-8.18,1.28-10.19-3.92c-2.08-5.37-4.5-10.6-8.25-15.69
		c-0.54,4.4-1.37,8.79-1.53,13.21c-0.15,3.93-2.08,4.16-5.29,4c-3.57-0.18-4.12-1.88-3.77-4.87c0.87-7.47,1.51-14.96,2.47-22.42
		c0.31-2.38-0.99-6.37,3.22-6.22c3.65,0.12,8.06-0.77,10.07,4.33C836.96,383.86,838.77,389.65,843.18,396.33z"/>
	<path class="st0" d="M885.68,427.36c-6.12-0.46-11.59-6.05-17.86-10.02c-1.75-1.11-0.75-2.6,0.05-3.81
		c4.96-7.47,10.01-14.89,14.94-22.38c1.26-1.92,2.51-2.59,4.54-1.12c4.05,2.94,8.4,5.53,12.18,8.79c5.08,4.37,6.35,10.61,4.04,16.48
		C900.67,422.67,894.33,427.48,885.68,427.36z M895.96,408.62c-0.24-4.14-2.57-6.88-5.9-8.32c-3.75-1.62-4.04,2.54-5.63,4.32
		c-1.51,1.68-2.74,3.66-3.79,5.67c-0.96,1.84-3.96,3.54-1.89,5.86c2.21,2.47,5.28,4.28,8.91,2.99
		C892.65,417.38,895.09,413.48,895.96,408.62z"/>
	<path class="st0" d="M875.57,625.01c-7.36-0.05-11.28-4.78-9.61-10.47c0.86-2.93,0.59-4.31-2.2-5.86
		c-2.07-1.15-3.76-3.34-5.07-5.41c-0.95-1.51-5.21-2.49-1.93-5.09c2.57-2.04,5.9-4.75,8.92-0.04c0.89,1.39,2.05,2.64,3.23,3.82
		c2.09,2.1,4.45,2.1,6.8,0.47c2.71-1.87,0.45-3.68-0.26-5.4c-1.39-3.37-5.35-6.81,1.17-9.35c2.51-0.98,3.76-0.58,4.94,1.76
		c3.84,7.63,7.86,15.18,11.74,22.79c0.72,1.42,2.06,3.36,0.12,4.46C887.28,620.19,881.31,624.13,875.57,625.01z M883.87,612.4
		c-1.9-1.23-1.38-5.06-4.45-4.31c-2.59,0.63-5.81,1.84-5.61,5.57c0.11,2.08,1.55,3.63,3.72,3.11
		C879.94,616.19,882.78,615.77,883.87,612.4z"/>
	<path class="st0" d="M919.18,525.09c0.04-10.33,6.77-17.69,16.29-17.78c10.84-0.11,18.82,7.04,18.76,16.78
		c-0.07,10.53-7.16,17.92-17,17.73C926.38,541.6,919.15,534.9,919.18,525.09z M937.95,533.01c5.47,0.07,9.52-3.16,9.68-7.71
		c0.18-5.01-5.23-9.02-12.23-9.09c-5.42-0.05-9.53,3.24-9.69,7.74C925.53,528.95,930.89,532.92,937.95,533.01z"/>
	<path class="st0" d="M912.79,556.48c2.66,0.03,4.83,1.33,6.87,2.8c4.59,3.3,9.01,6.85,13.71,9.99c3.06,2.05,3.76,3.67,1.28,6.91
		c-2.55,3.35-4.33,1.95-6.66,0.17c-4.33-3.31-8.71-6.55-13.14-9.73c-2.95-2.12-5.93-2.21-8.32,0.85c-2.47,3.17-2.18,6.26,1.07,8.76
		c4.32,3.32,8.71,6.54,13.12,9.73c2.66,1.92,4.23,3.53,1.48,6.98c-2.47,3.1-4.14,2.36-6.6,0.4c-4.26-3.39-8.72-6.53-13.05-9.85
		c-4.76-3.65-7.16-8.04-4.71-14.18C900.65,562.3,907.28,556.48,912.79,556.48z"/>
	<path class="st0" d="M760.48,395.99c-0.04,1.91-1.21,2.54-2.2,3.27c-2.18,1.62-4.4,3.18-6.57,4.81c-1.67,1.26-3.6,2.37-1.73,4.99
		c1.7,2.38,3.37,1.79,5.26,0.37c2.01-1.5,4.12-2.86,6.1-4.4c1.79-1.4,3.14-1.63,4.66,0.49c1.46,2.04,1.96,3.64-0.59,5.07
		c-0.54,0.31-1.04,0.71-1.53,1.09c-7.22,5.53-7.34,5.61-2.31,12.99c1.82,2.66,1.74,4.27-0.92,6.17c-2.44,1.75-4.12,2.25-6.15-0.64
		c-4.92-7-10.01-13.9-15.21-20.69c-1.91-2.49-1.31-3.98,0.96-5.61c4.76-3.4,9.42-6.93,14.16-10.37c1.13-0.82,2.35-2.21,3.81-0.76
		C759.21,393.76,759.87,395.1,760.48,395.99z"/>
	<path class="st0" d="M946.96,458.85c0.1,4.51-3.7,5.73-5.62,8.29c-0.83,1.11-2.66,1.8-2.15,3.49c0.54,1.79,2.44,1.22,3.78,1.46
		c4.38,0.79,9.4,0.27,10.22,6.74c0.36,2.83,0.18,3.97-2.99,3.13c-3.43-0.91-7.03-1.27-10.37-2.41c-6.05-2.07-11.87-1.82-17.63,0.75
		c-2.96,1.32-4.15,0.04-4.79-2.74c-0.52-2.22-1.95-4.97,1.54-5.49c9.91-1.48,15.02-9.13,21.18-15.53c1.23-1.28,2.29-3.89,4.19-3.18
		C946.61,454.21,945.78,457.39,946.96,458.85z"/>
	<path class="st0" d="M800.45,408.21c0.25,3.4-2.47,3.14-4.24,3.83c-2,0.77-3.74,0.41-4.44-1.97c-2.61-8.81-5.2-17.62-7.81-26.43
		c-0.72-2.44,0.5-3.58,2.68-3.92c1.87-0.29,4.52-2.36,5.47,0.55C795.16,389.59,797.75,399.05,800.45,408.21z"/>
</g>
</svg>
